<?xml version="1.0" standalone="no"?>
<!DOCTYPE svg PUBLIC "-//W3C//DTD SVG 20010904//EN"
 "http://www.w3.org/TR/2001/REC-SVG-20010904/DTD/svg10.dtd">
<svg version="1.0" xmlns="http://www.w3.org/2000/svg"
 width="144.000000pt" height="144.000000pt" viewBox="0 0 144.000000 144.000000"
 preserveAspectRatio="xMidYMid meet">
<metadata>
Created by potrace 1.16, written by Peter Selinger 2001-2019
</metadata>
<g transform="translate(0.000000,144.000000) scale(0.100000,-0.100000)"
fill="#000000" stroke="none">
<path d="M532 1420 c-245 -65 -449 -270 -512 -516 -27 -105 -27 -263 0 -368
63 -248 268 -453 516 -516 105 -27 263 -27 368 0 247 63 453 269 516 516 27
105 27 263 0 368 -63 248 -268 453 -516 516 -103 27 -270 26 -372 0z m300
-273 c92 -84 96 -73 -108 -313 -97 -115 -183 -217 -191 -226 -13 -15 -10 -21
27 -62 24 -25 45 -46 49 -46 3 0 94 97 200 215 227 251 216 245 317 163 35
-28 64 -53 64 -55 0 -2 -112 -126 -248 -276 -192 -211 -257 -275 -286 -285
l-37 -14 -72 64 c-40 35 -116 101 -170 148 -74 64 -100 94 -109 122 -11 37
-10 38 47 105 281 330 442 513 450 512 6 0 36 -23 67 -52z"/>
</g>
</svg>
